<svg width="154" height="102" viewBox="0 0 154 102" fill="none" xmlns="http://www.w3.org/2000/svg">
<path d="M23.5525 37.1575C25.5775 36.7525 27.5125 36.46 29.3575 36.28C31.2475 36.1 33.07 36.01 34.825 36.01C39.955 36.01 44.4775 36.7975 48.3925 38.3725C52.3525 39.9025 55.66 42.0175 58.315 44.7175C61.015 47.4175 63.04 50.59 64.39 54.235C65.74 57.88 66.415 61.795 66.415 65.98C66.415 71.2 65.4925 75.97 63.6475 80.29C61.8025 84.565 59.2375 88.255 55.9525 91.36C52.7125 94.42 48.82 96.805 44.275 98.515C39.775 100.225 34.8475 101.08 29.4925 101.08C26.3875 101.08 23.4175 100.743 20.5825 100.068C17.7475 99.4375 15.0925 98.5825 12.6175 97.5025C10.1875 96.3775 7.915 95.095 5.8 93.655C3.685 92.215 1.795 90.7075 0.13 89.1325L5.8675 81.3025C7.0825 79.6375 8.6575 78.805 10.5925 78.805C11.8075 78.805 13 79.165 14.17 79.885C15.34 80.605 16.6675 81.415 18.1525 82.315C19.6375 83.17 21.37 83.9575 23.35 84.6775C25.33 85.3975 27.7375 85.7575 30.5725 85.7575C33.4975 85.7575 36.04 85.285 38.2 84.34C40.36 83.35 42.1375 82.0225 43.5325 80.3575C44.9725 78.6475 46.03 76.645 46.705 74.35C47.425 72.01 47.785 69.5125 47.785 66.8575C47.785 61.7725 46.3225 57.8575 43.3975 55.1125C40.5175 52.3225 36.31 50.9275 30.775 50.9275C26.23 50.9275 21.6625 51.7825 17.0725 53.4925L5.53 50.2525L13.765 2.05749H62.905V9.8875C62.905 11.1925 62.7025 12.385 62.2975 13.465C61.9375 14.5 61.3075 15.4225 60.4075 16.2325C59.5525 16.9975 58.4275 17.605 57.0325 18.055C55.6825 18.46 54.0175 18.6625 52.0375 18.6625H26.725L23.5525 37.1575ZM153.573 50.995C153.573 59.545 152.651 66.97 150.806 73.27C148.961 79.57 146.418 84.79 143.178 88.93C139.938 93.025 136.091 96.085 131.636 98.11C127.226 100.09 122.456 101.08 117.326 101.08C112.196 101.08 107.426 100.09 103.016 98.11C98.6055 96.085 94.803 93.025 91.608 88.93C88.413 84.79 85.893 79.57 84.048 73.27C82.248 66.97 81.348 59.545 81.348 50.995C81.348 42.445 82.248 35.0425 84.048 28.7875C85.893 22.4875 88.413 17.29 91.608 13.195C94.803 9.055 98.6055 5.995 103.016 4.015C107.426 1.98999 112.196 0.977491 117.326 0.977491C122.456 0.977491 127.226 1.98999 131.636 4.015C136.091 5.995 139.938 9.055 143.178 13.195C146.418 17.29 148.961 22.4875 150.806 28.7875C152.651 35.0425 153.573 42.445 153.573 50.995ZM134.336 50.995C134.336 44.065 133.841 38.35 132.851 33.85C131.906 29.35 130.646 25.795 129.071 23.185C127.496 20.575 125.673 18.7525 123.603 17.7175C121.578 16.6825 119.486 16.165 117.326 16.165C115.166 16.165 113.073 16.6825 111.048 17.7175C109.068 18.7525 107.291 20.575 105.716 23.185C104.186 25.795 102.948 29.35 102.003 33.85C101.058 38.35 100.586 44.065 100.586 50.995C100.586 57.97 101.058 63.7075 102.003 68.2075C102.948 72.7075 104.186 76.2625 105.716 78.8725C107.291 81.4825 109.068 83.305 111.048 84.34C113.073 85.375 115.166 85.8925 117.326 85.8925C119.486 85.8925 121.578 85.375 123.603 84.34C125.673 83.305 127.496 81.4825 129.071 78.8725C130.646 76.2625 131.906 72.7075 132.851 68.2075C133.841 63.7075 134.336 57.97 134.336 50.995Z" fill="#FFD600"/>
</svg>
