<svg width="36" height="37" viewBox="0 0 36 37" fill="none" xmlns="http://www.w3.org/2000/svg">
<path d="M34.875 17.125C34.5469 17.125 34.2773 17.2305 34.0664 17.4414C33.8555 17.6523 33.75 17.9219 33.75 18.25C33.75 20.4062 33.3281 22.4453 32.4844 24.3672C31.6641 26.2656 30.5391 27.9297 29.1094 29.3594C27.7031 30.7891 26.0391 31.9258 24.1172 32.7695C22.1953 33.5898 20.1562 34 18 34C15.8438 34 13.8047 33.5898 11.8828 32.7695C9.98438 31.9258 8.32031 30.7891 6.89062 29.3594C5.46094 27.9297 4.32422 26.2656 3.48047 24.3672C2.66016 22.4453 2.25 20.4062 2.25 18.25C2.25 16.0938 2.66016 14.0664 3.48047 12.168C4.32422 10.2461 5.44922 8.57031 6.85547 7.14062C8.28516 5.71094 9.96094 4.58594 11.8828 3.76562C13.8047 2.92188 15.8438 2.5 18 2.5C19.3828 2.5 20.7188 2.67578 22.0078 3.02734C23.3203 3.37891 24.5508 3.88281 25.6992 4.53906C26.8477 5.17188 27.9023 5.94531 28.8633 6.85938C29.8477 7.77344 30.6914 8.79297 31.3945 9.91797L28.582 9.60156C28.3008 9.53125 28.0195 9.60156 27.7383 9.8125C27.4805 10 27.3516 10.2578 27.3516 10.5859C27.2812 10.8672 27.3398 11.1484 27.5273 11.4297C27.7383 11.7109 28.0078 11.8516 28.3359 11.8516L33.293 12.5195C33.293 12.5195 33.3047 12.5195 33.3281 12.5195C33.375 12.5195 33.3984 12.5195 33.3984 12.5195C33.6797 12.5195 33.9258 12.4258 34.1367 12.2383C34.3477 12.0273 34.4766 11.7812 34.5234 11.5L35.2266 6.08594C35.2734 5.80469 35.1914 5.53516 34.9805 5.27734C34.793 4.99609 34.5352 4.85547 34.207 4.85547C33.8555 4.80859 33.5625 4.89062 33.3281 5.10156C33.0938 5.28906 32.9766 5.54687 32.9766 5.875L32.7305 7.91406C31.8867 6.71875 30.9258 5.65234 29.8477 4.71484C28.7695 3.77734 27.5977 2.98047 26.332 2.32422C25.0664 1.64453 23.7305 1.12891 22.3242 0.777344C20.9414 0.425781 19.5 0.25 18 0.25C15.5156 0.25 13.1836 0.730469 11.0039 1.69141C8.82422 2.62891 6.91406 3.91797 5.27344 5.55859C3.65625 7.17578 2.36719 9.07422 1.40625 11.2539C0.46875 13.4336 0 15.7656 0 18.25C0 20.7344 0.46875 23.0664 1.40625 25.2461C2.36719 27.4258 3.65625 29.3359 5.27344 30.9766C6.91406 32.5938 8.82422 33.8711 11.0039 34.8086C13.1836 35.7695 15.5156 36.25 18 36.25C20.4844 36.25 22.8164 35.7695 24.9961 34.8086C27.1758 33.8711 29.0742 32.5938 30.6914 30.9766C32.332 29.3359 33.6211 27.4258 34.5586 25.2461C35.5195 23.0664 36 20.7344 36 18.25C36 17.9219 35.8945 17.6523 35.6836 17.4414C35.4727 17.2305 35.2031 17.125 34.875 17.125ZM24.75 25C25.0781 25 25.3477 24.8945 25.5586 24.6836C25.7695 24.4727 25.875 24.2031 25.875 23.875V21.625H28.125C28.4531 21.625 28.7227 21.5195 28.9336 21.3086C29.1445 21.0977 29.25 20.8281 29.25 20.5C29.25 20.1719 29.1445 19.9023 28.9336 19.6914C28.7227 19.4805 28.4531 19.375 28.125 19.375H25.875V12.625C25.875 12.3906 25.793 12.1797 25.6289 11.9922C25.4883 11.7812 25.3125 11.6172 25.1016 11.5C24.8672 11.4531 24.6211 11.4648 24.3633 11.5352C24.1289 11.582 23.9531 11.7227 23.8359 11.957L18.2109 19.832C18.1172 19.9961 18.0586 20.1836 18.0352 20.3945C18.0352 20.6055 18.0586 20.793 18.1055 20.957C18.2227 21.1211 18.3633 21.2617 18.5273 21.3789C18.6914 21.4727 18.8906 21.5195 19.125 21.5195H23.625V23.7695C23.625 24.168 23.7305 24.4727 23.9414 24.6836C24.1523 24.8945 24.4219 25 24.75 25ZM21.2695 19.375L23.625 16.1055V19.375H21.2695ZM16.875 16C16.875 14.8281 16.418 13.7852 15.5039 12.8711C14.5898 11.957 13.5469 11.5 12.375 11.5C11.2031 11.5 10.1602 11.957 9.24609 12.8711C8.33203 13.7852 7.875 14.8281 7.875 16C7.875 16.3281 7.98047 16.5977 8.19141 16.8086C8.40234 17.0195 8.67188 17.125 9 17.125C9.32812 17.125 9.59766 17.0195 9.80859 16.8086C10.0195 16.5977 10.125 16.3281 10.125 16C10.125 15.4375 10.3594 14.9219 10.8281 14.4531C11.2969 13.9844 11.8125 13.75 12.375 13.75C12.8906 13.75 13.3945 13.9727 13.8867 14.418C14.3789 14.8633 14.625 15.3906 14.625 16C14.625 16.3281 14.4375 16.7734 14.0625 17.3359C13.6875 17.875 13.1953 18.4727 12.5859 19.1289C12 19.7617 11.332 20.418 10.582 21.0977C9.83203 21.7539 9.08203 22.375 8.33203 22.9609C8.16797 23.1484 8.03906 23.3477 7.94531 23.5586C7.85156 23.7695 7.86328 23.9922 7.98047 24.2266C8.05078 24.4375 8.17969 24.625 8.36719 24.7891C8.55469 24.9297 8.76562 25 9 25H15.75C16.0781 25 16.3477 24.8945 16.5586 24.6836C16.7695 24.4727 16.875 24.2031 16.875 23.875C16.875 23.5469 16.7695 23.2773 16.5586 23.0664C16.3477 22.8555 16.0781 22.75 15.75 22.75H12.1641C13.2188 21.7891 14.2617 20.6758 15.293 19.4102C16.3477 18.1445 16.875 17.0078 16.875 16Z" fill="#2963B9"/>
</svg>
