<svg width="36" height="37" viewBox="0 0 36 37" fill="none" xmlns="http://www.w3.org/2000/svg">
<path d="M18 0.25C15.5156 0.25 13.1836 0.730469 11.0039 1.69141C8.82422 2.62891 6.91406 3.91797 5.27344 5.55859C3.65625 7.17578 2.36719 9.07422 1.40625 11.2539C0.46875 13.4336 0 15.7656 0 18.25C0 20.7344 0.46875 23.0664 1.40625 25.2461C2.36719 27.4258 3.65625 29.3359 5.27344 30.9766C6.91406 32.5938 8.82422 33.8711 11.0039 34.8086C13.1836 35.7695 15.5156 36.25 18 36.25C20.4844 36.25 22.8164 35.7695 24.9961 34.8086C27.1758 33.8711 29.0742 32.5938 30.6914 30.9766C32.332 29.3359 33.6211 27.4258 34.5586 25.2461C35.5195 23.0664 36 20.7344 36 18.25C36 15.7656 35.5195 13.4336 34.5586 11.2539C33.6211 9.07422 32.332 7.17578 30.6914 5.55859C29.0742 3.91797 27.1758 2.62891 24.9961 1.69141C22.8164 0.730469 20.4844 0.25 18 0.25ZM18 34C15.8438 34 13.8047 33.5898 11.8828 32.7695C9.98438 31.9258 8.32031 30.7891 6.89062 29.3594C5.46094 27.9297 4.32422 26.2656 3.48047 24.3672C2.66016 22.4453 2.25 20.4062 2.25 18.25C2.25 16.0938 2.66016 14.0664 3.48047 12.168C4.32422 10.2461 5.44922 8.57031 6.85547 7.14062C8.28516 5.71094 9.96094 4.58594 11.8828 3.76562C13.8047 2.92188 15.8438 2.5 18 2.5C20.1562 2.5 22.1836 2.92188 24.082 3.76562C26.0039 4.58594 27.6797 5.71094 29.1094 7.14062C30.5391 8.54688 31.6641 10.2109 32.4844 12.1328C33.3281 14.0547 33.75 16.0938 33.75 18.25C33.75 20.4062 33.3281 22.4453 32.4844 24.3672C31.6641 26.2656 30.5391 27.9297 29.1094 29.3594C27.7031 30.7891 26.0391 31.9258 24.1172 32.7695C22.1953 33.5898 20.1562 34 18 34ZM21.375 14.3125C21.375 14.6406 21.4805 14.9102 21.6914 15.1211C21.9023 15.332 22.1719 15.4375 22.5 15.4375C22.8281 15.4375 23.0977 15.332 23.3086 15.1211C23.5195 14.9102 23.625 14.6406 23.625 14.3125C23.625 12.9531 23.1797 11.8047 22.2891 10.8672C21.4219 9.90625 20.3672 9.36719 19.125 9.25V8.125C19.125 7.79687 19.0195 7.52734 18.8086 7.31641C18.5977 7.10547 18.3281 7 18 7C17.6719 7 17.4023 7.10547 17.1914 7.31641C16.9805 7.52734 16.875 7.79687 16.875 8.125V9.25C15.6328 9.36719 14.5664 9.90625 13.6758 10.8672C12.8086 11.8047 12.375 12.9531 12.375 14.3125C12.375 15.8828 12.8555 16.9961 13.8164 17.6523C14.7773 18.3086 15.7969 18.8125 16.875 19.1641V25C16.2656 24.8828 15.7383 24.5664 15.293 24.0508C14.8477 23.5352 14.625 22.9141 14.625 22.1875C14.625 21.8594 14.5195 21.5898 14.3086 21.3789C14.0977 21.168 13.8281 21.0625 13.5 21.0625C13.1719 21.0625 12.9023 21.168 12.6914 21.3789C12.4805 21.5898 12.375 21.8594 12.375 22.1875C12.375 23.5469 12.8086 24.707 13.6758 25.668C14.5664 26.6055 15.6328 27.1328 16.875 27.25V28.375C16.875 28.7031 16.9805 28.9727 17.1914 29.1836C17.4023 29.3945 17.6719 29.5 18 29.5C18.3281 29.5 18.5977 29.3945 18.8086 29.1836C19.0195 28.9727 19.125 28.7031 19.125 28.375V27.25C20.3672 27.1328 21.4219 26.6055 22.2891 25.668C23.1797 24.707 23.625 23.5469 23.625 22.1875C23.625 20.6172 23.1445 19.5039 22.1836 18.8477C21.2227 18.1914 20.2031 17.6875 19.125 17.3359V11.5C19.7344 11.6172 20.2617 11.9336 20.707 12.4492C21.1523 12.9648 21.375 13.5859 21.375 14.3125ZM14.625 14.3125C14.625 13.5859 14.8477 12.9648 15.293 12.4492C15.7383 11.9336 16.2656 11.6172 16.875 11.5V16.668C16.0781 16.457 15.5039 16.1875 15.1523 15.8594C14.8008 15.5078 14.625 14.9922 14.625 14.3125ZM21.375 22.1875C21.375 22.9141 21.1523 23.5352 20.707 24.0508C20.2617 24.5664 19.7344 24.8828 19.125 25V19.832C19.9219 20.043 20.4961 20.3242 20.8477 20.6758C21.1992 21.0039 21.375 21.5078 21.375 22.1875Z" fill="#2963B9"/>
</svg>
