<svg width="24" height="25" viewBox="0 0 24 25" fill="none" xmlns="http://www.w3.org/2000/svg">
<path d="M4.5 21.5C4.5 22.3281 4.78906 23.0312 5.36719 23.6094C5.96094 24.2031 6.67188 24.5 7.5 24.5C8.32812 24.5 9.03125 24.2031 9.60938 23.6094C10.2031 23.0312 10.5 22.3281 10.5 21.5C10.5 20.6719 10.2031 19.9688 9.60938 19.3906C9.03125 18.7969 8.32812 18.5 7.5 18.5C6.67188 18.5 5.96094 18.7969 5.36719 19.3906C4.78906 19.9688 4.5 20.6719 4.5 21.5ZM9 21.5C9 21.9062 8.85156 22.2578 8.55469 22.5547C8.25781 22.8516 7.90625 23 7.5 23C7.09375 23 6.74219 22.8516 6.44531 22.5547C6.14844 22.2578 6 21.9062 6 21.5C6 21.0938 6.14844 20.7422 6.44531 20.4453C6.74219 20.1484 7.09375 20 7.5 20C7.90625 20 8.25781 20.1484 8.55469 20.4453C8.85156 20.7422 9 21.0938 9 21.5ZM20.25 18.5C19.4219 18.5 18.7109 18.7969 18.1172 19.3906C17.5391 19.9688 17.25 20.6719 17.25 21.5C17.25 22.3281 17.5391 23.0312 18.1172 23.6094C18.7109 24.2031 19.4219 24.5 20.25 24.5C21.0781 24.5 21.7812 24.2031 22.3594 23.6094C22.9531 23.0312 23.25 22.3281 23.25 21.5C23.25 20.6719 22.9531 19.9688 22.3594 19.3906C21.7812 18.7969 21.0781 18.5 20.25 18.5ZM20.25 23C19.8438 23 19.4922 22.8516 19.1953 22.5547C18.8984 22.2578 18.75 21.9062 18.75 21.5C18.75 21.0938 18.8984 20.7422 19.1953 20.4453C19.4922 20.1484 19.8438 20 20.25 20C20.6562 20 21.0078 20.1484 21.3047 20.4453C21.6016 20.7422 21.75 21.0938 21.75 21.5C21.75 21.9062 21.6016 22.2578 21.3047 22.5547C21.0078 22.8516 20.6562 23 20.25 23ZM0.75 2H3.09375L5.25 16.3672C5.28125 16.5391 5.36719 16.6875 5.50781 16.8125C5.64844 16.9375 5.8125 17 6 17H21C21.1875 17 21.3516 16.9375 21.4922 16.8125C21.6328 16.6875 21.7188 16.5312 21.75 16.3438L23.25 5.09375C23.2656 4.98438 23.2578 4.88281 23.2266 4.78906C23.1953 4.67969 23.1406 4.58594 23.0625 4.50781C23 4.42969 22.9141 4.36719 22.8047 4.32031C22.7109 4.27344 22.6094 4.25 22.5 4.25H4.96875L4.5 1.13281C4.46875 0.960937 4.38281 0.8125 4.24219 0.6875C4.10156 0.5625 3.9375 0.5 3.75 0.5H0.75C0.546875 0.5 0.367188 0.578125 0.210938 0.734375C0.0703125 0.875 0 1.04688 0 1.25C0 1.45312 0.0703125 1.63281 0.210938 1.78906C0.367188 1.92969 0.546875 2 0.75 2ZM21.6328 5.75L20.3438 15.5H6.65625L5.17969 5.75H21.6328Z" fill="#373737"/>
</svg>
