<svg width="36" height="34" viewBox="0 0 36 34" fill="none" xmlns="http://www.w3.org/2000/svg">
<path d="M35.3672 17.4805L31.2891 15.4414L28.0547 6.86328C27.9609 6.62891 27.8203 6.45313 27.6328 6.33594C27.4453 6.19531 27.2344 6.125 27 6.125H18V1.625C18 1.32031 17.8828 1.0625 17.6484 0.851562C17.4375 0.617188 17.1797 0.5 16.875 0.5H1.125C0.820312 0.5 0.550781 0.617188 0.316406 0.851562C0.105469 1.0625 0 1.32031 0 1.625C0 1.92969 0.105469 2.19922 0.316406 2.43359C0.550781 2.64453 0.820312 2.75 1.125 2.75H15.75V27.5C15.75 27.8047 15.8555 28.0742 16.0664 28.3086C16.3008 28.5195 16.5703 28.625 16.875 28.625H19.2305C19.4883 29.9141 20.1328 30.9922 21.1641 31.8594C22.1953 32.7031 23.3906 33.125 24.75 33.125C26.1094 33.125 27.3047 32.7031 28.3359 31.8594C29.3672 30.9922 30.0117 29.9141 30.2695 28.625H34.875C35.1797 28.625 35.4375 28.5195 35.6484 28.3086C35.8828 28.0742 36 27.8047 36 27.5V18.5C36 18.2891 35.9414 18.0898 35.8242 17.9023C35.707 17.7148 35.5547 17.5742 35.3672 17.4805ZM24.75 30.875C23.8125 30.875 23.0156 30.5469 22.3594 29.8906C21.7031 29.2344 21.375 28.4375 21.375 27.5C21.375 26.5625 21.7031 25.7656 22.3594 25.1094C23.0156 24.4531 23.8125 24.125 24.75 24.125C25.6875 24.125 26.4844 24.4531 27.1406 25.1094C27.7969 25.7656 28.125 26.5625 28.125 27.5C28.125 28.4375 27.7969 29.2344 27.1406 29.8906C26.4844 30.5469 25.6875 30.875 24.75 30.875ZM33.75 26.375H30.2695C30.0117 25.0859 29.3672 24.0195 28.3359 23.1758C27.3047 22.3086 26.1094 21.875 24.75 21.875C23.3906 21.875 22.1953 22.3086 21.1641 23.1758C20.1328 24.0195 19.4883 25.0859 19.2305 26.375H18V8.375H26.2266L29.3203 16.6367C29.3672 16.7773 29.4375 16.9062 29.5312 17.0234C29.625 17.1172 29.7422 17.1992 29.8828 17.2695L33.75 19.2031V26.375ZM25.875 15.125H22.5V11.75C22.5 11.4453 22.3828 11.1875 22.1484 10.9766C21.9375 10.7422 21.6797 10.625 21.375 10.625C21.0703 10.625 20.8008 10.7422 20.5664 10.9766C20.3555 11.1875 20.25 11.4453 20.25 11.75V16.25C20.25 16.5547 20.3555 16.8242 20.5664 17.0586C20.8008 17.2695 21.0703 17.375 21.375 17.375H25.875C26.1797 17.375 26.4375 17.2695 26.6484 17.0586C26.8828 16.8242 27 16.5547 27 16.25C27 15.9453 26.8828 15.6875 26.6484 15.4766C26.4375 15.2422 26.1797 15.125 25.875 15.125ZM12.375 6.125H3.375C3.07031 6.125 2.80078 6.24219 2.56641 6.47656C2.35547 6.6875 2.25 6.94531 2.25 7.25C2.25 7.55469 2.35547 7.82422 2.56641 8.05859C2.80078 8.26953 3.07031 8.375 3.375 8.375H12.375C12.6797 8.375 12.9375 8.26953 13.1484 8.05859C13.3828 7.82422 13.5 7.55469 13.5 7.25C13.5 6.94531 13.3828 6.6875 13.1484 6.47656C12.9375 6.24219 12.6797 6.125 12.375 6.125ZM12.375 11.75H5.625C5.32031 11.75 5.05078 11.8672 4.81641 12.1016C4.60547 12.3125 4.5 12.5703 4.5 12.875C4.5 13.1797 4.60547 13.4492 4.81641 13.6836C5.05078 13.8945 5.32031 14 5.625 14H12.375C12.6797 14 12.9375 13.8945 13.1484 13.6836C13.3828 13.4492 13.5 13.1797 13.5 12.875C13.5 12.5703 13.3828 12.3125 13.1484 12.1016C12.9375 11.8672 12.6797 11.75 12.375 11.75ZM12.375 17.375H7.875C7.57031 17.375 7.30078 17.4922 7.06641 17.7266C6.85547 17.9375 6.75 18.1953 6.75 18.5C6.75 18.8047 6.85547 19.0742 7.06641 19.3086C7.30078 19.5195 7.57031 19.625 7.875 19.625H12.375C12.6797 19.625 12.9375 19.5195 13.1484 19.3086C13.3828 19.0742 13.5 18.8047 13.5 18.5C13.5 18.1953 13.3828 17.9375 13.1484 17.7266C12.9375 17.4922 12.6797 17.375 12.375 17.375Z" fill="#2963B9"/>
</svg>
